/* XPM */
static char *right[]={
"16 16 3 1",
". c None",
"a c #000000",
"# c #ffffff",
"..............##",
".............#a#",
"............#aa#",
"...........#aaa#",
"..........#aaaa#",
".........#aaaaa#",
"........#aaaaaa#",
".......#aaaaaaa#",
"......#aaaaaaaa#",
"......####aaaaa#",
".........#aa#aa#",
"........#aa#.#a#",
"........#aa#..##",
".......#aa#.....",
".......#aa#.....",
"........##......"};
